<?xml version="1.0" encoding="UTF-8" standalone="no"?>
<svg
   id="Camada_1"
   data-name="Camada 1"
   viewBox="0 0 200 199.285"
   version="1.1"
   sodipodi:docname="teste.svg"
   width="200"
   height="199.285"
   inkscape:version="1.3 (0e150ed, 2023-07-21)"
   xmlns:inkscape="http://www.inkscape.org/namespaces/inkscape"
   xmlns:sodipodi="http://sodipodi.sourceforge.net/DTD/sodipodi-0.dtd"
   xmlns="http://www.w3.org/2000/svg"
   xmlns:svg="http://www.w3.org/2000/svg">
  <sodipodi:namedview
     id="namedview9"
     pagecolor="#ffffff"
     bordercolor="#000000"
     borderopacity="0.25"
     inkscape:showpageshadow="2"
     inkscape:pageopacity="0.0"
     inkscape:pagecheckerboard="0"
     inkscape:deskcolor="#d1d1d1"
     inkscape:zoom="0.32564761"
     inkscape:cx="-168.89422"
     inkscape:cy="122.83216"
     inkscape:window-width="1504"
     inkscape:window-height="449"
     inkscape:window-x="0"
     inkscape:window-y="361"
     inkscape:window-maximized="0"
     inkscape:current-layer="Camada_1" />
  <defs
     id="defs1">
    <style
       id="style1">&#10;      .cls-1 {&#10;        fill: #ff7f66;&#10;        stroke-width: 0px;&#10;      }&#10;    </style>
  </defs>
  <g
     id="g9"
     transform="matrix(0.11207612,0,0,0.11207612,-43.459517,-43.817069)">
    <path
       class="cls-1"
       d="m 968.17,795.62 c -0.32,-55.11 -70.48,-81 -109.66,-41.06 -153.44,145.05 -266.4,242.79 -438.34,277.8 -11.85,41.96 -20.76,84.82 -26.42,128.29 207.13,-20.84 489.5,-198.02 574.42,-365.03 z"
       id="path1" />
    <path
       class="cls-1"
       d="m 933.29,530.31 c 28.41,-26.65 57.2,-53.67 86.47,-80.29 10.92,-9.93 0.64,-27.63 -13.42,-23.14 -204.02,65.12 -380.18,204.81 -491,387.53 -7.59,12.51 5.69,27.37 18.93,21.15 C 686.04,764.35 809.01,646.2 933.29,530.31 Z"
       id="path2" />
    <path
       class="cls-1"
       d="m 914.25,1949.12 c 91.02,-34.72 175.43,-85.73 249.33,-149.25 126.14,-102.45 407.07,-486.96 297.79,-535.73 -35.93,-22.75 -82.65,-1.27 -95.34,37.7 -31.08,63.05 -73.39,148.89 -133.26,233.88 h -0.05 c -106.85,151.26 -235.8,255.38 -405.34,309.51 -31.74,9.89 -65.86,18.28 -98.92,23.96 -23.13,5.98 -48.87,5.13 -72.6,9.37 -13.65,2.44 -18.8,19.42 -9,29.23 29.46,29.52 60.96,57.01 94.24,82.17 3.86,2.92 8.81,4.1 13.58,3.24 54.74,-9.81 107.63,-24.21 159.57,-44.09 z"
       id="path3" />
    <path
       class="cls-1"
       d="m 2159.63,1130.3 c -0.06,-0.35 -0.12,-0.7 -0.18,-1.06 -2.22,-13.28 -21.81,-11.96 -22.29,1.5 -4.42,124.98 -30.14,250.04 -77.03,373.82 l -0.49,0.13 c -39.32,103.53 -92.99,205.39 -159.68,303.11 -19.92,39.64 -70.84,78.63 -82.29,122.43 -6.33,24.21 23.05,41.73 42.17,25.58 228.09,-192.67 354.37,-516.19 299.79,-825.51 z"
       id="path4" />
    <path
       class="cls-1"
       d="m 1044.25,652.91 c 73.27,101.21 216.39,-163.86 460.92,-205.69 18.22,-3.12 19.31,-28.69 1.43,-33.39 -32.62,-8.57 -65.79,-15.3 -99.32,-20.13 -61.35,-8.83 -123.87,3.8 -176.77,36.1 -100.04,61.09 -239.34,159.44 -186.26,223.1 z"
       id="path5" />
    <path
       class="cls-1"
       d="m 1254.44,2037.96 c 301.08,-208.29 528.95,-609.33 512.67,-967.98 -2.17,-153.28 -188.34,-254.03 -317.44,-170.91 -196.64,122.34 -322.11,407.84 -506.44,564.65 l -0.18,-0.04 c -21.06,20.35 -52.77,36.19 -59.96,67.12 -2.98,9.8 -3.11,19.7 -0.99,29.02 8.57,37.7 52.72,55.67 86.33,36.57 226.72,-128.78 345.41,-461.57 545.99,-588.95 253.35,-78.68 72.57,438.32 -2.11,558.52 h -0.09 c -92.88,166.61 -228.45,309.39 -390.25,409.19 -41.39,25.65 -84.55,48.63 -128.92,68.78 -18.73,10.48 -41.91,15.4 -60.54,26.36 -12.31,7.25 -11.17,25.41 2.01,30.93 42.43,17.78 86.44,32.29 131.33,43.24 3.96,0.97 8.16,0.51 11.83,-1.28 61.72,-30.16 120.73,-65.23 176.75,-105.2 z"
       id="path6" />
    <path
       class="cls-1"
       d="m 1955.76,1241.12 c -34.04,-11.93 -73.55,10.88 -80.78,46.08 -20.15,88.39 -52.7,178.89 -96.9,269.16 l -0.31,0.04 c -111.62,228.17 -288.54,433.98 -499.74,581.19 -13.73,9.57 -7.02,31.15 9.72,31.33 79.3,0.86 172.12,0.13 220.45,-53.72 237.65,-211.06 425,-514.21 489.07,-796.66 7.75,-33.45 -10.48,-67.48 -41.51,-77.42 z"
       id="path7" />
    <path
       class="cls-1"
       d="m 709.57,1721.46 c 47.54,-20.02 52.19,-86.58 8.6,-111.59 -13.16,-7.88 -28.79,-10.75 -43.97,-7.97 -62.49,11.52 -127.97,11.76 -198.5,0.6 -13.41,-2.12 -24.07,11.2 -18.77,23.69 14.57,34.32 31.29,67.68 50.03,99.82 2.9,4.98 8.13,8.17 13.88,8.52 63.17,3.85 128.48,4.78 188.73,-13.07 z"
       id="path8" />
    <path
       class="cls-1"
       d="m 456.39,1441.42 c 315.3,7.2 544.72,-235.76 713.99,-444.43 150.37,-178.26 280.27,-332.21 463.55,-296.65 191.43,36.94 247.58,194.34 260.97,319.81 6.8,81.38 135.94,67.91 125.51,-13.39 -24.94,-233.83 -157.08,-390.69 -362.57,-430.41 -256.04,-49.43 -422.75,148.17 -584.05,339.33 -170.68,212.1 -381.46,427.15 -666.99,397.75 -10.64,-1.1 -19.64,7.62 -19,18.3 1.9,31.62 5.49,63.06 10.67,94.13 1.31,7.88 7.98,13.88 15.96,14.34 14.14,0.82 28.12,1.23 41.95,1.23 z"
       id="path9" />
  </g>
</svg>
